<?xml version="1.0" standalone="no"?>
<!DOCTYPE svg PUBLIC "-//W3C//DTD SVG 20010904//EN"
 "http://www.w3.org/TR/2001/REC-SVG-20010904/DTD/svg10.dtd">
<svg version="1.0" xmlns="http://www.w3.org/2000/svg"
 width="512.000000pt" height="512.000000pt" viewBox="0 0 512.000000 512.000000"
 preserveAspectRatio="xMidYMid meet">
<metadata>
Created by potrace 1.14, written by Peter Selinger 2001-2017
</metadata>
<g transform="translate(0.000000,512.000000) scale(0.100000,-0.100000)"
fill="#000000" stroke="none">
<path d="M578 4873 c-32 -37 -41 -67 -53 -188 -6 -53 -6 -328 0 -385 2 -25 6
-63 9 -85 3 -22 8 -67 11 -100 3 -33 8 -78 10 -100 3 -22 7 -67 11 -100 3 -33
7 -73 10 -88 7 -41 6 -40 5 -63 0 -11 -10 -30 -22 -42 -22 -25 -102 -139 -129
-186 -10 -17 -37 -65 -60 -106 -62 -107 -162 -320 -199 -420 -35 -96 -76 -258
-86 -340 -4 -30 -9 -64 -12 -75 -3 -11 -6 -103 -8 -205 -4 -247 8 -370 60
-575 68 -273 176 -503 338 -724 87 -118 110 -145 227 -259 211 -208 482 -379
760 -482 63 -23 124 -46 135 -50 17 -7 54 -17 77 -20 4 -1 22 -6 40 -11 18 -6
44 -12 58 -15 14 -3 58 -11 98 -20 40 -8 105 -18 145 -22 96 -9 375 -9 459 1
64 8 79 10 138 22 71 14 94 19 205 50 193 54 365 129 510 222 61 40 261 187
275 202 3 3 32 28 65 56 91 76 135 116 304 284 234 230 389 322 626 368 40 8
232 8 270 0 17 -3 43 -9 59 -12 26 -5 132 -41 177 -59 14 -6 15 1 7 61 -39
308 -237 594 -494 713 -151 70 -224 85 -404 85 -191 0 -309 -33 -506 -140
-150 -82 -261 -172 -469 -379 -148 -148 -237 -221 -362 -299 -162 -100 -300
-150 -480 -176 -65 -9 -307 -7 -348 2 -11 3 -50 12 -86 21 -371 86 -700 390
-827 763 -47 135 -57 201 -56 368 1 208 22 295 117 494 67 140 201 299 337
400 107 80 274 164 370 186 132 30 173 36 286 39 185 5 422 -53 584 -142 103
-57 250 -181 330 -277 21 -26 103 -147 136 -201 11 -17 17 -13 75 46 187 194
325 413 424 670 32 84 100 302 109 350 3 14 8 36 11 50 14 63 34 191 42 270
10 94 10 364 1 450 -13 112 -20 139 -44 165 -39 42 -80 34 -259 -51 -130 -61
-287 -160 -487 -305 l-188 -137 -42 15 c-80 28 -174 52 -289 74 -146 27 -495
35 -634 14 -168 -25 -285 -51 -384 -85 l-63 -22 -46 33 c-26 18 -51 37 -57 41
-76 62 -300 222 -368 264 -153 95 -350 184 -406 184 -15 0 -35 -8 -43 -17z"/>
</g>
</svg>
